<svg version="1" xmlns="http://www.w3.org/2000/svg" width="2261.333" height="2261.333" viewBox="0 0 1696.000000 1696.000000"><path d="M298.9 528.4c-.2.2-4 .7-8.4 1.1-4.4.3-9.3.8-11 1.1-1.6.2-4.8.6-7 .9-6.3.8-7 .9-26.5 5-1.4.3-3.2.8-4 1.1-.8.3-2.6.8-4 1-5 1-22.7 6.8-33.2 10.9-5.9 2.4-11 4-11.3 3.7-.3-.3-.5 0-.5.6 0 .7-.5 1.2-1.1 1.2-1.4 0-15 6.5-21.1 10.2-2.7 1.5-4.8 2.6-4.8 2.3 0-1.4-38.1 23.8-38.8 25.7-.2.4-.8.8-1.3.8-.8 0-1.7.7-7.2 5.3-1.2 1-4.4 3.7-7.1 6-2.7 2.3-7.1 6.3-9.8 8.9-2.6 2.5-4.8 4.5-4.8 4.3 0-.2-2.1 1.9-4.8 4.7-2.6 2.8-5.8 6.3-7.2 7.8-3.6 3.7-12.6 14.2-15.2 17.6-1.3 1.6-2.6 3-3 3.2-.5.2-.8 1-.8 1.7s-.4 1.5-.8 1.7c-1.7.6-16.6 22.7-23.5 34.7-2.8 4.9-12.9 25.1-14.4 28.7-.7 1.6-2.6 6.3-4.4 10.4-3.9 9.5-11 31.2-12.4 38-.2.8-.4 1.5-.5 1.5-.2 0-.4 1-2.9 12.7-1.2 5.3-2.2 10.9-2.3 12.3-.1 1.4-.5 2.5-.8 2.5-.3 0-.5 1.5-.6 3.3-.1 1.7-.4 5.2-.7 7.7C1 818.9.5 827.3.5 848.5c.1 12.6.4 26.1.9 30 .5 3.8 1 8.3 1.1 10 .4 4.6 1.7 12.6 3.5 21 .6 2.7 1.2 5.9 1.4 7 2 11.2 10 37.1 15.8 51 1.6 3.8 3 7.6 3.2 8.3.1.7.8 1.8 1.4 2.4.7.7 1.2 1.6 1.2 2.1 0 2.2 15.7 31.9 17.2 32.5.4.2.8.8.8 1.4 0 .9 15.7 24.7 17 25.8.3.3 1.9 2.3 3.6 4.5 1.6 2.1 3.6 4.7 4.4 5.6.8.9 3.5 4 6 7 8.2 9.8 31.2 32.2 40.1 38.9 1.8 1.4 3.7 2.9 4.3 3.5 2.7 2.4 12.8 9.7 21.1 15.1 5 3.3 9.1 6.2 9.3 6.6.2.5.9.8 1.6.8.6 0 3.4 1.5 6.1 3.2 8.1 5.3 30.8 16.2 44.5 21.4 11.9 4.6 31.8 10.8 38 12 1.4.3 5 1.1 8 1.9 7.3 1.8 23.9 4.5 38 6.1 13.5 1.6 59.9.9 71-1.1 1.4-.2 4.3-.6 6.5-.9 2.2-.3 5-.7 6.2-1 1.1-.2 4.3-.8 7-1.2 5.3-.9 6.2-1.1 6.6-1.4.2-.2 1.8-.5 6.7-1.5 6.2-1.2 11.5-2.7 24-6.7 5.2-1.6 10-3.1 10.5-3.2 1.5-.4 6.7-2.6 9.9-4.2 1.6-.8 3.3-1.4 3.8-1.4 2.5 0 38.5-17.8 42.6-21.1.9-.8 2.7-2 4-2.7 1.2-.6 3.2-1.8 4.5-2.5 1.2-.6 2.6-1.8 3-2.5.4-.6 1.2-1.2 1.8-1.2 1 0 14.8-9.7 19.8-14 .9-.8 3.7-3.1 6.2-4.9 2.4-1.9 5.5-4.4 6.8-5.5 4.2-3.8 27.5-27 30.1-30.1 1.4-1.7 4.7-5.7 7.5-9 6.6-7.8 18.5-24.2 18.5-25.4 0-.5.4-1.1.8-1.3 1.1-.4 9.2-13.5 9.2-14.8 0-.5.3-1 .8-1 .4 0 1.2-.9 1.7-1.9 14.4-28.4 22.5-46.9 26-60.1.1-.3.4-1.2.8-2 1.3-3.2 7.1-25 8.2-30.9 1.8-9.4 4.3-26.5 5-33.7.4-4 1.6-27.3 1.6-30.9 0-8.8-1.6-34.5-2.6-40.5-.4-2.5-.9-6.1-1.1-8-.1-1.9-.6-4.9-.9-6.5-.3-1.7-1.3-6.4-2.1-10.5-3.5-16.8-9.4-36.4-16.2-53.7-4.1-10.3-14.6-32-18.8-38.8-1.3-2.2-2.7-4.7-3.1-5.5-.4-.8-2.4-4.1-4.5-7.2-2.1-3.1-3.8-6.1-3.8-6.7 0-.5-.4-1.1-.8-1.3-.5-.2-2.3-2.6-4.2-5.3-1.8-2.8-3.6-5.2-4-5.5-.3-.3-1.7-2.1-3-4s-2.9-4-3.5-4.7c-.5-.7-2.1-2.6-3.5-4.3-6.7-8.3-11.5-13.5-22.5-24.5-6.6-6.6-14.2-13.8-16.9-16-2.7-2.2-5.6-4.7-6.5-5.5-.9-.8-3.2-2.6-5.1-4-1.9-1.3-3.7-2.7-4-3-2.3-2.5-17.3-12.6-29.5-19.9-3.9-2.3-7.7-4.6-8.5-5.1-6.3-3.8-37-18.2-37-17.3 0 .3-.6.1-1.2-.4-.7-.6-6.7-2.9-13.3-5.1-10.2-3.5-14.5-4.8-25.5-7.7-2.4-.6-20.1-4.3-24-5-3.8-.7-6.8-1.1-14.5-2.1-2.7-.3-6.1-.8-7.5-1-3.1-.6-52.6-1.5-53.1-1zm41.1 38.1c13.3 1 22 2 27 3 4.6 1 7.5 1.5 10.5 2.1 1.7.3 5.7 1.2 9 2.1 3.3.8 6.5 1.6 7 1.7 16.7 3.8 55.8 20 66.6 27.7 1.5 1 3 1.9 3.4 1.9.3 0 2.6 1.3 5 3 2.4 1.6 4.8 3 5.4 3 .6 0 1.1.4 1.1 1 0 .5.5 1 1 1 .6 0 1.6.5 2.3 1 .7.6 5.5 4.2 10.7 8.1 17.5 13.1 33.7 28.4 47 44.5 4.1 4.9 7.8 9 8.3 9.2.4.2.7.9.7 1.5 0 .7 1 2.3 2.3 3.7 2.4 2.7 13.6 19.6 18 27.1 4.8 8.4 13.3 26.3 16.6 34.9 1.8 4.7 3.7 9.4 4.2 10.5 1.1 2.7 4.8 14.5 5.4 17.3.2 1.2.6 2.6.9 3 .3.5.7 1.9 1 3.3.3 1.3 1 4.4 1.6 6.9 1.6 7.2 4 20.2 4.6 24.5.2 2.2.6 5.3.9 7 .7 5.6 1.8 23.8 1.8 32.4 0 9.9-1.6 34.6-2.3 34.6 0 0-.2 2-.4 4.5s-.6 5.4-.9 6.5c-.4 1.1-.9 4-1.2 6.4-.3 2.3-.7 4.6-1 5-.2.4-.7 2.3-1 4.2-1.1 6.4-5.3 21.9-7.2 26.9-.4.8-.7 1.7-.8 2-.5 2.1-3 9-4 11.5-.8 1.6-2.8 6.4-4.5 10.5-3.3 8-16.7 34.2-17.9 35-.4.3-1.8 2.4-3.1 4.7-1.3 2.4-2.7 4.3-3.2 4.3-.4 0-.8.5-.8 1.1 0 1.4-9.9 14.7-18.9 25.4-21.2 25-46.2 45.7-76.9 63.6-11.9 6.9-41.1 19.9-48.2 21.4-.8.2-4.9 1.5-9 3-4.1 1.4-7.6 2.5-7.8 2.4-.2 0-3.2.5-8.2 1.7-5.9 1.4-15.7 3.4-18.5 3.8-13.9 2.1-14.3 2.2-25.6 3-15.5 1.3-39.6.8-53.3-.9-8.7-1.1-11.3-1.5-13.6-2-1.4-.3-4.5-.8-6.9-1.1-2.4-.2-4.9-.8-5.5-1.1-.6-.4-2-.8-3.1-.9-3.6-.3-27.7-7.1-33-9.4-1.1-.4-4.7-1.8-8-3.1-3.3-1.2-8.9-3.6-12.5-5.3-3.6-1.6-6.7-3-7-3.1-.7-.1-10-5-14.7-7.6-7.2-4-15.8-9.3-20.4-12.6-2.6-1.8-4.9-3.3-5.3-3.3-.4 0-1.7-.9-2.9-2s-6-5-10.7-8.7c-13.6-10.8-27.2-23.7-36-34.1-2.5-3-5.4-6.4-6.5-7.6-4-4.6-6.5-7.6-6.5-8.1 0-.2-2.3-3.4-5-7.1-2.8-3.7-5-7-5-7.5 0-.4-.6-1.4-1.3-2.1-3.7-3.7-19.5-33.4-25.7-48.3-3.3-8.1-8.9-25.3-11.4-35-6-23.9-8.9-47.3-8.8-70.8.1-21.5 3-47.5 7.2-64.2.6-2.2 1.3-4.8 1.5-5.9 5-21.4 21.1-58.9 34.1-79.1 19.9-31.1 41.7-54.7 70.4-76.4 11.1-8.4 32.7-22.1 34.8-22.1.6 0 1.2-.4 1.4-.8.3-.7 19.2-10.2 20.4-10.2.2 0 2.3-.9 4.7-1.9 4.4-2 14.8-5.8 23.2-8.6 4.7-1.6 27.7-7.3 32-8 17.6-2.9 20.7-3.3 35-4.1 6.6-.3 12.1-.7 12.2-.8.4-.3 17.5.3 25.3.9z"/><path d="M166.5 773c-3.7.6-9.6 3.7-11.2 5.9-6.2 8.1-6 18.6.5 25.5 4 4.2 8.3 5.6 18.5 6.2 9.1.4 15.8 1.1 18.7 1.9.8.2 3 .7 4.7 1 4.7.8 19.6 5.5 21.1 6.7.6.6 1.2.8 1.2.5 0-.9 17.1 8.3 23.4 12.6 12.6 8.5 26 21.8 34 33.8 2 3 3.9 5.8 4.4 6.4 4 5.1 13.7 28.5 15.6 37.5 2.2 10 2.6 12.6 2.2 13.7-.3.7-.1 1.5.3 1.7.5.3.9 4.7 1 9.7.3 13 3.1 18.8 11.1 22.9 9.6 4.8 21.1.1 25.5-10.4 2-4.7 1.6-18.4-1-35.1-3.8-24.2-17.5-55.7-31.9-73.6-1.2-1.4-3.2-4-4.5-5.7-4.9-6.4-18.8-19.9-27.1-26.2-1.8-1.4-3.9-3.1-4.6-3.8-.7-.6-1.6-1.2-1.9-1.2-.4 0-2.1-1-3.8-2.3-6.7-4.8-28.7-15.7-36.7-18.2-3-1-6.4-2.1-7.5-2.6-2-.8-6.8-2.1-9.5-2.5-.8-.2-2.2-.5-3-.7-1.7-.4-7.1-1.5-11.5-2.2-2.7-.5-14.6-1.5-22-1.9-1.6-.1-4.3.1-6 .4zM469.7 772.6c-.1.1-3.7.4-7.9.5-12.6.3-31.2 3.6-41.5 7.3-2.2.8-4.4 1.2-4.7.9-.3-.4-.6-.2-.6.4 0 .6-1.4 1.3-3.2 1.7-1.7.3-7 2.5-11.7 4.8-4.7 2.3-8.9 4.1-9.3 4-.5-.1-.8.2-.8.8 0 .5-.5 1-1.1 1-1.1 0-18 10.6-18.9 11.9-.3.4-1.4 1.4-2.6 2.2-6.4 4.4-20.7 18-22.7 21.5-.5.9 0 2.8 1.5 5.2 4.9 7.9 7.8 13.6 13.7 26.4 1.2 2.7 2.5 4.8 3 4.8s2.1-1.9 3.6-4.3c2.4-3.5 17.9-19.5 22.7-23.3 4-3.2 14.1-9.6 20.1-12.8 6-3.3 20.8-9.3 24.7-10.1.8-.2 3.3-.8 5.5-1.3 8-2.2 17.3-3.5 26-3.7 3.9-.1 8.4-.5 10-1 5.6-1.4 12.1-7.6 13-12.2.2-1 .4-2 .5-2.3.7-2-.1-8.3-1.6-11.7-2-4.6-8.9-9.7-14.2-10.5-1.7-.2-3.3-.3-3.5-.2zM850.8 742.1c-6.2 1-11.9 7.6-10.8 12.4.1.5.3 1.8.5 2.8.7 3.4 4.5 7.6 7.8 8.3 1.7.4 16.9.8 33.7.8l30.5.1V852c.1 93.7-.2 89.5 6 93.1 5.8 3.4 13.5 1.5 16.9-4.2 1.7-2.9 1.8-7.8 1.8-88.5 0-47 .3-85.5.7-85.5.3-.1 14.3-.2 31.1-.3 16.8-.1 31.6-.6 33-1 4.5-1.6 8.5-8.4 7.5-13.1-.2-1.1-.4-2.3-.4-2.8-.2-1.8-6.1-6.7-8.7-7.3-3.8-.7-145.1-1.1-149.6-.3zM1462.3 742.4c-2.5 1.4-4.8 3.7-6.1 6.2-.8 1.4-1.1 30.7-1.1 96.4v94.2l2.2 3.4c2.9 4.5 9.6 6.8 14.4 4.9 4.6-1.9 7.3-5.1 7.9-9.3.5-3.3.8-142.3.3-144.7-.1-.6 0-1.5.1-2 .1-.6.2-9.7.2-20.4 0-21.7-1-25.9-6.5-28.2-3.7-1.6-9.1-1.8-11.4-.5zM1084 743.5c-11.5 2.5-21.3 5.9-29.3 10.2-1.5.8-4 2.1-5.4 2.8-1.4.8-2.9 1.7-3.2 2.2-.3.4-2.8 2.3-5.6 4.2-9.6 6.6-26.5 26.1-29.2 33.9-.3.9-1.3 2.5-2.1 3.4-.8 1-1.2 1.8-.9 1.8.3 0-.5 2.4-1.8 5.4-2.5 5.7-4.9 14-6.1 21.6-1.5 9.3-.9 29.9 1.2 39 .9 4.1.9 4.3 2.9 10 1.1 3 2 5.7 2 6 .3 1.7 6.9 13.8 10.3 18.7 10.5 15.4 23.2 26.5 39.6 34.6 11.7 5.8 19.9 8.4 33.1 10.4 10.9 1.7 30.3.2 42-3.1.6-.2 2.3-.6 3.9-1.1 7.4-2 26-12.4 32.8-18.2 15.5-13.5 26.6-29.6 32.8-47.7 1.8-5.3 4.7-20.1 4.9-25.1.4-8.8-.4-23-1.5-26.7-.3-.9-.7-2.7-.9-3.9-1.6-8.2-11.3-30.9-13.6-31.7-.5-.2-.9-.8-.9-1.4 0-1.4-9-12.5-14.2-17.4-2.4-2.3-6.8-6-9.8-8.3-3-2.3-6-4.5-6.5-4.9-.9-.8-16.7-8.5-21-10.3-1.1-.5-4.7-1.6-8-2.4-3.3-.9-6.9-1.9-8-2.2-4.1-1.1-32.1-1-37.5.2zm32 24.1c.8.3 2.8.8 4.5 1.1 7.3 1.2 21.2 7.7 28.6 13.3 4.2 3.1 14.9 13.9 16.9 17 .8 1.2 2.1 2.9 2.8 3.6.7.8 1 1.4.5 1.4-.4 0-.3.4.3.8 1.3.9 6.9 12.6 8 16.7.4 1.6.8 3.2.9 3.5 3.4 12.6 3.5 24.6 0 40.5-1.7 8.2-8.9 22-15.1 29.1l-3.1 3.7-4.8-5.9c-2.6-3.3-5.1-6.1-5.6-6.2-.5-.2-.9-1-.9-1.7s-.3-1.5-.8-1.7c-.4-.2-4.6-5-9.2-10.7-4.7-5.6-13.2-16-19-23-5.8-7-12-14.6-13.8-16.9-1.9-2.2-4.2-5.1-5.3-6.4-1-1.3-2.2-2.8-2.6-3.3-.5-.6-2.4-2.9-4.3-5.1-1.9-2.2-5.1-6-7-8.4-1.9-2.4-7-8.7-11.3-13.9-4.3-5.3-8.5-10.5-9.4-11.6-.9-1.1-2.3-2.8-3.2-3.8-1.4-1.7-1.4-2 .4-3 1.1-.6 2.2-1.2 2.5-1.3.3 0 2.5-1 5-2.1 6.9-3.1 11.5-4.4 19.8-5.7 7.6-1.2 22.2-1.2 25.2 0zm-69.9 30.5c1.3 1.8 3.2 4.1 4.2 5.3 3.9 4.5 5.3 6.3 9.2 11.1 2.2 2.7 4.5 5.5 5 6.1.6.6 2.4 2.8 4 4.9 1.7 2.1 3.5 4.3 4 4.9.6.6 4.9 5.8 9.5 11.6 4.7 5.8 9 10.9 9.6 11.5.6.5 2.8 3.2 5 6 2.1 2.7 4.4 5.5 4.9 6.1 1.9 2.1 19.8 24.1 22.7 27.9.5.5 2.4 2.8 4.3 5 2 2.2 5.6 6.6 8.1 9.7l4.5 5.7-5.5 2.5c-11.6 5.3-19.3 7-32.1 7-6.6 0-13.3-.3-15-.7-7-1.4-8.1-1.7-10-2.6-1.1-.5-4.3-1.8-7.2-2.9-6.6-2.6-17.5-9.8-23.4-15.5-12.9-12.4-22-31.3-23.5-48.5-.3-4.2-.6-8.2-.6-8.7.7-13 2.9-22.1 7.7-32.4 3.5-7.4 10-17.1 11.4-17.1.5 0 1.9 1.4 3.2 3.1zM1240.1 743.2c-6.9 3.7-8.5 12.3-3.4 18.8 2.7 3.5 15.4 19.6 16.1 20.5.4.5 4.4 5.7 8.7 11.5 4.4 5.8 8.6 10.9 9.2 11.3.7.4 1.3 1.2 1.3 1.8 0 .5 1 2 2.3 3.2 1.3 1.2 2.7 2.9 3 3.7.4.8 5.9 8 12.2 16 6.3 8 11.5 15 11.5 15.6 0 .5-.8 1.9-1.7 3-1 1.1-3.4 4-5.3 6.4-1.9 2.5-3.8 4.9-4.2 5.5-1.3 1.6-27.8 35.7-30.2 38.8-1.1 1.5-2.8 3.6-3.6 4.7-.8 1-2.4 3.1-3.5 4.6-1.1 1.5-2.5 3.2-3 3.8-.6.6-2.4 2.9-4 5.1-1.7 2.2-3.2 4.2-3.5 4.5-3.2 2.9-7 9.9-7 12.7 0 7.1 5.2 12.3 12.2 12.3 4.4-.1 7-1.7 10.8-6.5 4.9-6.3 7.3-9.4 14.3-18.5 3.6-4.7 8.2-10.5 10.2-13 1.9-2.5 6.5-8.3 10.1-13 3.6-4.7 8-10.3 9.7-12.4 1.8-2.1 3.7-4.6 4.2-5.5 2.7-4.4 10.9-14 11.6-13.6.4.3 3.2 3.8 6.2 7.8 3 3.9 9.9 12.9 15.3 19.8 5.5 6.9 11 14.1 12.4 15.9 1.4 1.8 3.1 3.9 3.8 4.6.6.7 1.2 1.5 1.2 1.8 0 .3.9 1.6 1.9 2.8 1 1.3 5.5 6.9 10 12.5 11.1 14.1 17.8 18.5 27.8 18.5 14.5 0 15.7-21 1.3-23.7-2.7-.5-4.1-1.9-12-12-3-3.9-6-7.6-6.7-8.3-.7-.7-1.3-1.7-1.3-2 0-.4-1-1.8-2.3-3.2-1.2-1.4-3.8-4.5-5.7-7-1.9-2.5-3.9-5-4.5-5.6-.5-.6-1.7-2.2-2.5-3.4-.8-1.2-2-2.8-2.5-3.4-1.7-1.8-25.1-32-25.9-33.4-.6-1 8.8-14.1 23.6-32.5 2.4-3.1 1.4-1.7 21.9-28.2 21.7-28 22.6-29.7 18.5-35.8-2.7-4.1-8.1-6.7-12.4-6-4.3.7-7 3.6-26.8 29.3-17.4 22.4-20.6 26.5-22.7 29-.7.8-3.3 4.2-5.7 7.5-6 7.9-7.2 9.5-9.2 11.6-.9 1-2.2 2.7-2.8 3.9l-1.2 2.2-1.6-2.4c-.9-1.2-2.1-2.8-2.7-3.4-.5-.6-5.3-6.6-10.5-13.4-13.6-17.5-29.6-37.9-33.3-42.4-1.8-2.1-3.4-4.3-3.6-4.9-.2-.5-1.1-1.7-2-2.6-.9-1-2.9-3.5-4.6-5.6-6.4-8.3-7.8-9.5-12.5-10-2.8-.4-5.4-.1-6.9.7zM1534.9 743.5c-1.4.8-3.4 2.7-4.4 4.2-1.8 2.7-1.9 7.3-1.9 96.4 0 99.8-.1 98 4.8 101.3 5.4 3.5 12.1 2.6 16.6-2.2l2.5-2.7.2-74c.1-40.7.2-74.7.2-75.5.1-.9.7-.6 1.8 1 1 1.4 2.1 2.9 2.5 3.5 1.5 1.8 13.3 17.3 15.1 19.8 1 1.4 5.3 7 9.5 12.5 8.7 11.3 7.7 9.9 25.2 33 7.2 9.6 13.6 17.9 14.1 18.5.6.7 5.1 6.6 10 13.2s9.5 12.7 10.2 13.5c.7.8 6.2 8 12.2 16 6 8 11.5 15.1 12.2 15.8.7.7 2 2.6 2.9 4.2 2.3 3.8 5.5 5.4 11 5.4 3.7 0 5-.6 7.7-3.2l3.2-3.2.3-94.6c.2-83.2 0-94.9-1.3-97.8-3.4-7-12.5-8.7-18.7-3.3l-3.3 2.9-.3 76-.2 76-3-3.8c-4.2-5.5-4.1-5.3-8.9-11.9-2.5-3.3-4.7-6.2-5.1-6.5-.3-.3-1.7-2.1-3-4-1.4-1.9-3-4.2-3.7-5-.7-.8-3.2-4.2-5.7-7.5s-4.9-6.5-5.3-7c-.5-.6-3.5-4.6-6.9-9-14.2-18.9-38.7-51.1-41.7-55-1.3-1.7-9.2-12-17.5-23s-16-21-17.1-22.3c-2.5-2.9-10.3-3.8-14.2-1.7z"/></svg>